<svg width="21" height="20" viewBox="0 0 21 20" fill="none" xmlns="http://www.w3.org/2000/svg">
<g clip-path="url(#clip0_241_1105)">
<path d="M13.9008 6.8042H6.42392C2.8762 6.8042 0 9.75731 0 13.4015C0 17.0457 2.8762 20.0001 6.42392 20.0001H13.9008C17.4485 20.0001 20.3247 17.0457 20.3247 13.4015C20.3247 9.75731 17.4485 6.8042 13.9008 6.8042ZM13.7607 19.2435C10.6207 19.2435 8.07461 16.6282 8.07461 13.4028C8.07461 10.1774 10.6207 7.56207 13.7607 7.56207C16.9008 7.56207 19.4468 10.1774 19.4468 13.4028C19.4468 16.6282 16.9008 19.2435 13.7607 19.2435Z" fill="#34C759"/>
<path d="M13.0117 3.90368C13.0117 4.73477 13.2218 5.51447 13.5907 6.19013C11.7974 5.87286 10.4331 4.2672 10.4331 2.334C10.4331 2.09122 10.4543 1.85359 10.4969 1.62237C10.847 1.51319 11.2197 1.4541 11.6048 1.4541C12.2676 1.4541 12.8916 1.6288 13.4343 1.93451C13.163 2.5331 13.0117 3.19977 13.0117 3.90368Z" fill="#34C759"/>
<path d="M18.0538 2.33398C18.0538 4.10019 16.9158 5.59281 15.3514 6.07964C15.0825 6.16313 14.8024 6.21837 14.511 6.23764H14.5098C14.0383 5.58638 13.7595 4.77842 13.7595 3.90366C13.7595 3.36159 13.867 2.84522 14.0608 2.37508C14.6073 1.05202 15.8416 0.102762 17.3034 0C17.7749 0.651252 18.0538 1.45922 18.0538 2.33398Z" fill="#34C759"/>
</g>
<defs>
<clipPath id="clip0_241_1105">
<rect width="20.3247" height="20" fill="white"/>
</clipPath>
</defs>
</svg>
