<svg width="21" height="18" viewBox="0 0 21 18" fill="none" xmlns="http://www.w3.org/2000/svg">
<mask id="mask0_96_18" style="mask-type:alpha" maskUnits="userSpaceOnUse" x="0" y="0" width="21" height="18">
<path fill-rule="evenodd" clip-rule="evenodd" d="M4.22001 7.79C5.84703 10.62 8.46832 12.93 11.6659 14.38L14.1516 12.18C14.4566 11.91 14.9086 11.82 15.304 11.94C16.5695 12.31 17.9366 12.51 19.3377 12.51C19.9591 12.51 20.4675 12.96 20.4675 13.51V17C20.4675 17.55 19.9591 18 19.3377 18C8.72819 18 0.129883 10.39 0.129883 1C0.129883 0.45 0.638324 0 1.25975 0H5.2143C5.83573 0 6.34417 0.45 6.34417 1C6.34417 2.25 6.57014 3.45 6.98819 4.57C7.11248 4.92 7.02209 5.31 6.70573 5.59L4.22001 7.79V7.79Z" fill="white"/>
</mask>
<g mask="url(#mask0_96_18)">
<rect x="-4.38962" y="-4" width="29.3766" height="26" fill="#929292"/>
</g>
</svg>
