<svg width="31" height="30" viewBox="0 0 31 30" fill="none" xmlns="http://www.w3.org/2000/svg">
<mask id="mask0_19_193" style="mask-type:alpha" maskUnits="userSpaceOnUse" x="5" y="1" width="21" height="20">
<path fill-rule="evenodd" clip-rule="evenodd" d="M15.5 1C9.97746 1 5.45901 5.5 5.45901 11C5.45901 16.5 9.97746 21 15.5 21C21.0225 21 25.541 16.5 25.541 11C25.541 5.5 21.0225 1 15.5 1ZM19.7172 15.2L14.4959 12V6H16.0021V11.2L20.5205 13.9L19.7172 15.2Z" fill="white"/>
</mask>
<g mask="url(#mask0_19_193)">
</g>
<mask id="mask1_19_193" style="mask-type:alpha" maskUnits="userSpaceOnUse" x="4" y="0" width="23" height="22">
<path fill-rule="evenodd" clip-rule="evenodd" d="M4.95901 11C4.95901 5.22193 9.70325 0.5 15.5 0.5C21.2968 0.5 26.041 5.22193 26.041 11C26.041 16.7781 21.2968 21.5 15.5 21.5C9.70325 21.5 4.95901 16.7781 4.95901 11ZM15.5 1.5C10.2517 1.5 5.95901 5.77807 5.95901 11C5.95901 16.2219 10.2517 20.5 15.5 20.5C20.7483 20.5 25.041 16.2219 25.041 11C25.041 5.77807 20.7483 1.5 15.5 1.5ZM13.9959 5.5H16.5021V10.9163L21.2126 13.7311L19.8807 15.8866L13.9959 12.28V5.5ZM14.9959 6.5V11.72L19.5537 14.5134L19.8284 14.0689L15.5021 11.4837V6.5H14.9959Z" fill="white"/>
</mask>
<g mask="url(#mask1_19_193)">
<g filter="url(#filter0_d_19_193)">
<path d="M2.44672 -2H28.5533V24H2.44672V-2Z" fill="#3344CC"/>
</g>
<g filter="url(#filter1_d_19_193)">
<path fill-rule="evenodd" clip-rule="evenodd" d="M1.94672 -2.5H29.0533V24.5H1.94672V-2.5ZM2.94672 -1.5V23.5H28.0533V-1.5H2.94672Z" fill="black"/>
</g>
</g>
<defs>
<filter id="filter0_d_19_193" x="-1.55328" y="-2" width="34.1066" height="34" filterUnits="userSpaceOnUse" color-interpolation-filters="sRGB">
<feFlood flood-opacity="0" result="BackgroundImageFix"/>
<feColorMatrix in="SourceAlpha" type="matrix" values="0 0 0 0 0 0 0 0 0 0 0 0 0 0 0 0 0 0 127 0" result="hardAlpha"/>
<feOffset dy="4"/>
<feGaussianBlur stdDeviation="2"/>
<feComposite in2="hardAlpha" operator="out"/>
<feColorMatrix type="matrix" values="0 0 0 0 0 0 0 0 0 0 0 0 0 0 0 0 0 0 0.25 0"/>
<feBlend mode="normal" in2="BackgroundImageFix" result="effect1_dropShadow_19_193"/>
<feBlend mode="normal" in="SourceGraphic" in2="effect1_dropShadow_19_193" result="shape"/>
</filter>
<filter id="filter1_d_19_193" x="-2.05328" y="-2.5" width="35.1066" height="35" filterUnits="userSpaceOnUse" color-interpolation-filters="sRGB">
<feFlood flood-opacity="0" result="BackgroundImageFix"/>
<feColorMatrix in="SourceAlpha" type="matrix" values="0 0 0 0 0 0 0 0 0 0 0 0 0 0 0 0 0 0 127 0" result="hardAlpha"/>
<feOffset dy="4"/>
<feGaussianBlur stdDeviation="2"/>
<feComposite in2="hardAlpha" operator="out"/>
<feColorMatrix type="matrix" values="0 0 0 0 0 0 0 0 0 0 0 0 0 0 0 0 0 0 0.25 0"/>
<feBlend mode="normal" in2="BackgroundImageFix" result="effect1_dropShadow_19_193"/>
<feBlend mode="normal" in="SourceGraphic" in2="effect1_dropShadow_19_193" result="shape"/>
</filter>
</defs>
</svg>
