<svg width="20" height="19" viewBox="0 0 20 19" fill="none" xmlns="http://www.w3.org/2000/svg">
<path d="M3.95121 5.92816H16.2032L15.0436 17.2394H5.04344L3.78544 5.92816L3.78502 5.92435L3.95121 5.92816ZM5.19074 7.12094V7.15225L6.18339 16.0468L6.15227 16.0502H6.18727H13.8956V16.0845L13.8995 16.0467L14.8185 7.11744L14.8146 7.11704L14.8107 7.11664L14.7766 7.11313H5.19074V7.11704V7.12094Z" fill="#737373" stroke="#737373" stroke-width="0.0078125"/>
<path d="M7.18546 8.66846L8.0774 14.6809" stroke="#737373" stroke-width="0.964368" stroke-linecap="round"/>
<path d="M12.814 8.66846L11.923 14.6809" stroke="#737373" stroke-width="0.964368" stroke-linecap="round"/>
<path d="M16.6416 4.21866V4.76987H3.3584V4.21865L7.40409 3.10425H12.5465L16.6416 4.21866Z" fill="#737373" stroke="#737373" stroke-width="0.0078125"/>
<path d="M7.74673 1.94324H12.2534V3.48791H7.74674L7.74673 1.94324Z" fill="white" stroke="#737373" stroke-width="0.546503" stroke-linecap="round" stroke-linejoin="round"/>
</svg>
